<?xml version="1.0" encoding="UTF-8" standalone="no"?>
<!DOCTYPE svg PUBLIC "-//W3C//DTD SVG 1.1//EN"
 "http://www.w3.org/Graphics/SVG/1.1/DTD/svg11.dtd">
<!-- Generated by graphviz version 2.43.0 (0)
 -->
<!-- Title: my::heapbased::forward_list&lt; T &gt;::Node Pages: 1 -->
<svg width="185pt" height="115pt"
 viewBox="0.00 0.00 185.00 115.00" xmlns="http://www.w3.org/2000/svg" xmlns:xlink="http://www.w3.org/1999/xlink">
<g id="graph0" class="graph" transform="scale(1 1) rotate(0) translate(4 111)">
<title>my::heapbased::forward_list&lt; T &gt;::Node</title>
<!-- Node1 -->
<g id="Node000001" class="node">
<title>Node1</title>
<g id="a_Node000001"><a xlink:title=" ">
<polygon fill="#999999" stroke="#666666" points="134,-30 0,-30 0,0 134,0 134,-30"/>
<text text-anchor="start" x="8" y="-18" font-family="Helvetica,sans-Serif" font-size="10.00">my::heapbased::forward</text>
<text text-anchor="middle" x="67" y="-7" font-family="Helvetica,sans-Serif" font-size="10.00">_list&lt; T &gt;::Node</text>
</a>
</g>
</g>
<!-- Node2 -->
<g id="Node000002" class="node">
<title>Node2</title>
<g id="a_Node000002"><a xlink:href="structmy_1_1heapbased_1_1forward__list_1_1Node.html" target="_top" xlink:title=" ">
<polygon fill="white" stroke="#666666" points="134,-107 0,-107 0,-77 134,-77 134,-107"/>
<text text-anchor="start" x="8" y="-95" font-family="Helvetica,sans-Serif" font-size="10.00">my::heapbased::forward</text>
<text text-anchor="middle" x="67" y="-84" font-family="Helvetica,sans-Serif" font-size="10.00">_list&lt; T &gt;::Node</text>
</a>
</g>
</g>
<!-- Node2&#45;&gt;Node1 -->
<g id="edge1_Node000001_Node000002" class="edge">
<title>Node2&#45;&gt;Node1</title>
<g id="a_edge1_Node000001_Node000002"><a xlink:title=" ">
<path fill="none" stroke="#9a32cd" stroke-dasharray="5,2" d="M67,-66.54C67,-54.45 67,-40.29 67,-30.04"/>
<polygon fill="#9a32cd" stroke="#9a32cd" points="63.5,-66.89 67,-76.89 70.5,-66.89 63.5,-66.89"/>
</a>
</g>
<text text-anchor="middle" x="79.5" y="-51" font-family="Helvetica,sans-Serif" font-size="10.00" fill="grey"> next</text>
</g>
<!-- Node2&#45;&gt;Node2 -->
<g id="edge2_Node000002_Node000002" class="edge">
<title>Node2&#45;&gt;Node2</title>
<g id="a_edge2_Node000002_Node000002"><a xlink:title=" ">
<path fill="none" stroke="#9a32cd" stroke-dasharray="5,2" d="M144.54,-96.93C149.2,-95.75 152,-94.11 152,-92 152,-88.62 144.84,-86.45 134.34,-85.47"/>
<polygon fill="#9a32cd" stroke="#9a32cd" points="143.67,-93.52 134.34,-98.53 144.76,-100.43 143.67,-93.52"/>
</a>
</g>
<text text-anchor="middle" x="164.5" y="-89.5" font-family="Helvetica,sans-Serif" font-size="10.00" fill="grey"> next</text>
</g>
</g>
</svg>
